<svg xmlns="http://www.w3.org/2000/svg" viewBox="0 0 24 24">
  <defs>
    <style>
      .cls-1 {
        fill: none;
      }

      .cls-2 {
        fill: #434447;
        fill-rule: evenodd;
      }
    </style>
  </defs>
  <g id="Groupe_7715" data-name="Groupe 7715" transform="translate(-281 -304)">
    <rect id="Rectangle_11538" data-name="Rectangle 11538" class="cls-1" width="24" height="24" transform="translate(281 304)"/>
    <g id="Groupe_7734" data-name="Groupe 7734" transform="translate(285.415 308.276)">
      <g id="Groupe_7734-2" data-name="Groupe 7734" transform="translate(-0.066 0.032)">
        <path id="Tracé_12237" data-name="Tracé 12237" class="cls-2" d="M66.461,65.128h0c-.368-.352-.736-.624-1.12-.928,2,1.12,4.465,2,3.713,3.761a2.468,2.468,0,0,1-.992.992c-1.745.768-2.641-1.713-3.761-3.713a11.652,11.652,0,0,0,.912,1.12h0l.016.016a.86.86,0,0,0,1.216,0l.016-.016.016-.016a.875.875,0,0,0-.016-1.216Z" transform="translate(-53.998 -53.93)"/>
        <path id="Tracé_12238" data-name="Tracé 12238" class="cls-2" d="M66.377,5.674h0c-.368.352-.736.624-1.12.928,2-1.12,4.465-2,3.713-3.761a2.468,2.468,0,0,0-.992-.992C66.217,1.081,65.32,3.561,64.2,5.562a11.654,11.654,0,0,1,.912-1.12h0l.016-.016a.86.86,0,0,1,1.216,0l.016.016.016.016a.86.86,0,0,1,0,1.216Z" transform="translate(-53.914 -1.438)"/>
        <path id="Tracé_12239" data-name="Tracé 12239" class="cls-2" d="M16.79,2.876c-2.033-.5-3.1-3.281-5.09-2.785a2.115,2.115,0,0,1,.544.032,2.748,2.748,0,0,1,1.44,1.216,17.677,17.677,0,0,1,1.136,2.017c.128.24.24.464.368.7.5.88,1.12,2.209,2.353,2.209,1.248-.016,1.873-1.344,2.369-2.225.128-.224.256-.464.368-.688a20.922,20.922,0,0,1,1.136-2.017A2.748,2.748,0,0,1,22.856.123,1.255,1.255,0,0,1,23.4.091c-1.985-.5-3.057,2.289-5.106,2.785a3.409,3.409,0,0,1-1.5,0Z" transform="translate(-9.817 -0.032)"/>
        <path id="Tracé_12240" data-name="Tracé 12240" class="cls-2" d="M16.79,60.893c-2.049.5-3.1,3.281-5.09,2.785a2.115,2.115,0,0,0,.544-.032,2.748,2.748,0,0,0,1.44-1.216,19.162,19.162,0,0,0,1.136-2.017c.128-.24.24-.464.368-.7.5-.88,1.12-2.209,2.353-2.209,1.248.016,1.873,1.344,2.369,2.225.128.224.256.464.368.7a20.921,20.921,0,0,0,1.136,2.017,2.748,2.748,0,0,0,1.44,1.216,1.255,1.255,0,0,0,.544.032c-1.985.5-3.057-2.3-5.106-2.8a3.409,3.409,0,0,0-1.5,0Z" transform="translate(-9.817 -48.302)"/>
        <path id="Tracé_12241" data-name="Tracé 12241" class="cls-2" d="M57.6,17.642h0c.016-1.248,1.344-1.873,2.225-2.353.224-.128.464-.256.688-.368a20.921,20.921,0,0,0,2.017-1.136,2.748,2.748,0,0,0,1.216-1.44,1.255,1.255,0,0,0,.032-.544c.5,1.985-2.3,3.057-2.785,5.09a3.554,3.554,0,0,0,0,1.536c.512,2.017,3.265,3.073,2.769,5.058a2.115,2.115,0,0,0-.032-.544,2.748,2.748,0,0,0-1.216-1.44A19.164,19.164,0,0,0,60.5,20.363c-.24-.128-.464-.24-.688-.368-.88-.5-2.209-1.12-2.209-2.353Z" transform="translate(-48.37 -9.916)"/>
        <path id="Tracé_12242" data-name="Tracé 12242" class="cls-2" d="M4.366,65.128h0c.368-.352.736-.624,1.12-.928-2,1.12-4.465,2-3.713,3.761a2.683,2.683,0,0,0,.992.992c1.745.768,2.641-1.713,3.761-3.713a11.653,11.653,0,0,1-.912,1.12h0l-.016.016a.86.86,0,0,1-1.216,0l-.016-.016-.016-.016a.875.875,0,0,1,.016-1.216Z" transform="translate(-1.362 -53.93)"/>
        <path id="Tracé_12243" data-name="Tracé 12243" class="cls-2" d="M4.425,5.674h0c.368.352.736.624,1.12.928-1.985-1.12-4.465-2-3.7-3.761a2.683,2.683,0,0,1,.992-.992C4.586,1.081,5.482,3.561,6.6,5.562a11.654,11.654,0,0,0-.912-1.12h0l-.016-.016a.86.86,0,0,0-1.216,0l-.016.016-.016.016a.86.86,0,0,0,0,1.216Z" transform="translate(-1.422 -1.438)"/>
        <path id="Tracé_12244" data-name="Tracé 12244" class="cls-2" d="M6.17,17.642h0c-.016-1.248-1.328-1.873-2.225-2.353-.224-.128-.464-.256-.688-.368a20.921,20.921,0,0,1-2.017-1.136,2.748,2.748,0,0,1-1.216-1.44A1.255,1.255,0,0,1-.008,11.8c-.5,1.985,2.3,3.057,2.785,5.09a3.554,3.554,0,0,1,0,1.536C2.281,20.443-.488,21.5.008,23.484A2.115,2.115,0,0,1,.04,22.94,2.748,2.748,0,0,1,1.257,21.5a17.677,17.677,0,0,1,2.017-1.136c.24-.128.464-.24.688-.368.88-.5,2.209-1.12,2.209-2.353Z" transform="translate(0.066 -9.916)"/>
      </g>
    </g>
  </g>
</svg>
