<svg width="178" height="171" viewBox="0 0 178 171" fill="none" xmlns="http://www.w3.org/2000/svg">
<path d="M161.563 37.9768C160.553 34.7447 158.129 32.1187 155.099 30.5026L93.4879 1.01002C91.8718 0.202004 90.0538 0 88.4378 0C86.8217 0 85.0037 0 83.3877 0.404008L21.7764 30.0986C18.7463 31.5126 16.5243 34.1387 15.7163 37.5728L0.565965 104.032C-0.0400474 107.466 0.767969 110.9 2.78801 113.728L45.4109 166.451C47.8349 168.875 51.269 170.491 54.7031 170.694H122.576C126.213 171.098 129.647 169.481 131.869 166.451L174.492 113.728C176.512 110.9 177.32 107.466 176.916 104.032L161.563 37.9768V37.9768Z" fill="#434447"/>
<path d="M152.069 101.406C151.867 101.406 151.665 101.406 151.665 101.204C151.665 101.002 151.261 101.002 150.857 101.002C150.049 100.8 149.241 100.8 148.433 100.8C148.029 100.8 147.625 100.8 147.221 100.598H147.019C144.797 100.396 142.373 99.9915 140.151 99.3855C139.545 99.1835 138.939 98.5775 138.737 97.9715C138.939 97.9715 138.737 97.9715 138.737 97.9715L137.121 97.5675C137.929 91.7093 137.525 85.6492 136.313 79.7911C134.899 73.933 132.475 68.2769 129.243 63.2268L130.455 62.0147V61.8127C130.455 61.2067 130.657 60.3987 131.061 59.9947C132.879 58.3787 134.697 57.1666 136.717 55.9546C137.121 55.7526 137.525 55.5506 137.929 55.3486C138.737 54.9446 139.343 54.5406 140.151 54.1366C140.353 53.9346 140.555 53.9346 140.757 53.7326C140.959 53.5306 140.757 53.5306 140.757 53.3286C142.575 51.9145 142.979 49.4905 141.565 47.6724C140.959 46.8644 139.747 46.2584 138.737 46.2584C137.727 46.2584 136.717 46.6624 135.909 47.2684L135.707 47.4704C135.505 47.6724 135.303 47.8744 135.101 47.8744C134.495 48.4805 133.889 49.0865 133.485 49.6925C133.283 50.0965 132.879 50.2985 132.677 50.5005C131.263 52.1165 129.445 53.7326 127.627 54.9446C127.223 55.1466 126.819 55.3486 126.415 55.3486C126.213 55.3486 125.809 55.3486 125.607 55.1466H125.405L123.789 56.1566C122.173 54.5406 120.355 52.9245 118.739 51.3085C111.264 45.4504 101.972 41.8143 92.4781 40.8043L92.2761 39.1883V39.3903C91.6701 38.9863 91.4681 38.3802 91.2661 37.7742C91.2661 35.5522 91.2661 33.3301 91.6701 30.9061V30.7041C91.6701 30.3001 91.8721 29.8961 91.8721 29.4921C92.0741 28.684 92.0741 27.876 92.2761 27.068V25.856C92.4781 23.8359 90.8621 21.8159 88.842 21.6139C87.63 21.4119 86.418 22.0179 85.408 23.0279C84.5999 23.8359 84.1959 24.846 84.1959 25.856V26.866C84.1959 27.674 84.3979 28.482 84.5999 29.2901C84.8019 29.6941 84.8019 30.0981 84.8019 30.5021V30.7041C85.206 32.9261 85.206 35.1482 85.206 37.5722C85.004 38.1782 84.8019 38.7843 84.1959 39.1883V39.5923L83.9939 41.2083C81.7719 41.4103 79.5498 41.8143 77.1258 42.2183C67.6316 44.2384 58.9454 49.2885 52.2793 56.3586L51.0673 55.5506H50.8653C50.6632 55.5506 50.4612 55.7526 50.0572 55.7526C49.6532 55.7526 49.2492 55.5506 48.8452 55.3486C47.0272 53.9346 45.2091 52.3185 43.7951 50.7025C43.5931 50.2985 43.1891 50.0965 42.9871 49.8945C42.3811 49.2885 41.9771 48.6825 41.3711 48.0764C41.1691 47.8744 40.967 47.8744 40.765 47.6724C40.563 47.4704 40.563 47.4704 40.563 47.4704C39.755 46.8644 38.745 46.4604 37.735 46.4604C36.523 46.4604 35.5129 46.8644 34.9069 47.8744C33.6949 49.6925 34.0989 52.1165 35.7149 53.5306C35.9169 53.5306 35.9169 53.7326 35.9169 53.7326C35.9169 53.7326 36.321 54.1366 36.523 54.1366C37.129 54.5406 37.937 54.9446 38.745 55.3486C39.149 55.5506 39.553 55.7526 39.957 55.9546C41.9771 57.1666 43.9971 58.3787 45.6131 59.9947C46.0172 60.3987 46.4212 61.2067 46.2192 61.8127V61.6107L47.4312 62.8227C47.2292 63.2268 47.0272 63.4288 46.8252 63.8328C40.563 73.731 37.937 85.4472 39.755 96.9614L38.139 97.3655C38.139 97.5675 37.937 97.5675 37.937 97.5675C37.735 98.1735 37.129 98.5775 36.523 98.9815C34.3009 99.5875 32.0789 99.9915 29.6548 100.194C29.2508 100.194 28.8468 100.194 28.4428 100.396C27.6348 100.396 26.8268 100.598 26.0187 100.598C25.8167 100.598 25.6147 100.8 25.2107 100.8C25.0087 100.8 25.0087 100.8 24.8067 101.002C22.5847 101.406 21.1706 103.426 21.5746 105.648C21.9787 107.466 23.7967 108.678 25.6147 108.476C26.0187 108.476 26.2207 108.476 26.6248 108.274C26.8268 108.274 26.8268 108.274 26.8268 108.072C26.8268 107.87 27.4328 108.072 27.6348 108.072C28.4428 107.87 29.2508 107.466 29.8568 107.264C30.2608 107.062 30.6648 106.86 31.0688 106.86H31.2708C33.4929 106.052 35.5129 105.446 37.937 105.042H38.139C38.745 105.042 39.351 105.244 39.755 105.648C39.957 105.648 39.957 105.85 39.957 105.85L41.7751 105.648C44.8051 114.94 50.4612 123.222 58.3394 129.282C60.1574 130.696 61.7735 131.908 63.7935 132.918L62.7835 134.332C62.7835 134.534 62.9855 134.534 62.9855 134.534C63.3895 135.14 63.3895 135.948 63.1875 136.554C62.3795 138.574 61.1675 140.594 59.9554 142.412V142.614C59.7534 143.018 59.5514 143.22 59.1474 143.624C58.7434 144.028 58.3394 144.836 57.7334 145.644C57.5314 145.846 57.5314 146.048 57.3294 146.25C57.3294 146.25 57.3294 146.452 57.1274 146.452C56.1174 148.473 56.9254 150.897 58.7434 151.907C59.1474 152.109 59.7534 152.311 60.1574 152.311C61.7735 152.311 63.1875 151.301 63.9955 149.887C63.9955 149.887 63.9955 149.685 64.1975 149.685C64.1975 149.483 64.3995 149.281 64.6015 149.079C64.8035 148.271 65.2075 147.664 65.4096 146.856L65.8136 145.644C66.4196 143.422 67.4296 141.402 68.4396 139.382C68.8436 138.776 69.4496 138.372 70.0556 138.17C70.2576 138.17 70.2576 138.17 70.2576 137.968L71.0657 136.352C76.7218 138.574 82.5799 139.584 88.64 139.584C92.2761 139.584 95.9122 139.18 99.5482 138.17C101.77 137.766 103.992 136.958 106.012 136.352L106.82 137.766C107.022 137.766 107.022 137.766 107.022 137.968C107.628 138.17 108.234 138.574 108.638 139.18C109.648 141.2 110.658 143.22 111.264 145.442V145.644L111.668 146.856C111.87 147.664 112.073 148.473 112.477 149.079C112.679 149.281 112.679 149.483 112.881 149.685C112.881 149.685 112.881 149.887 113.083 149.887C113.891 151.301 115.305 152.311 116.921 152.311C117.527 152.311 117.931 152.109 118.537 151.907C119.345 151.503 120.153 150.695 120.355 149.685C120.557 148.675 120.557 147.664 120.153 146.654C120.153 146.452 119.951 146.452 119.951 146.452C119.951 146.25 119.749 146.048 119.547 145.846C119.143 145.038 118.739 144.432 118.133 143.826C117.931 143.422 117.729 143.22 117.325 142.816V142.412C115.911 140.594 114.901 138.574 114.093 136.554C113.891 135.948 113.891 135.14 114.295 134.534C114.295 134.332 114.497 134.332 114.497 134.332L113.891 132.716C124.193 126.454 132.071 116.758 135.707 105.244L137.323 105.446C137.525 105.446 137.525 105.244 137.525 105.244C137.929 104.84 138.535 104.638 139.141 104.638H139.343C141.565 105.042 143.787 105.648 145.807 106.456H146.009C146.413 106.658 146.817 106.86 147.221 106.86C148.029 107.264 148.635 107.668 149.443 107.87C149.645 107.87 149.847 108.072 150.251 108.072C150.453 108.072 150.453 108.072 150.655 108.274C151.059 108.476 151.261 108.476 151.665 108.476C153.483 108.476 155.099 107.264 155.705 105.648C155.503 103.426 153.887 101.81 152.069 101.406V101.406ZM93.6901 95.1434L88.236 97.7695L82.7819 95.1434L81.3679 89.2853L85.206 84.4372H91.2661L95.1042 89.2853L93.6901 95.1434V95.1434ZM126.617 82.0131C127.627 86.2552 127.829 90.4973 127.425 94.7394L108.234 89.2853C106.416 88.8813 105.406 87.0632 105.81 85.2452C106.012 84.6392 106.214 84.2352 106.618 83.8312L121.769 70.0949C123.991 73.731 125.607 77.7711 126.617 82.0131V82.0131ZM115.709 62.6207L99.1442 74.337C97.7302 75.145 95.7102 74.943 94.7002 73.529C94.2961 73.125 94.0941 72.721 94.0941 72.1149L92.8821 51.7125C101.77 52.7225 109.648 56.5606 115.709 62.6207V62.6207ZM79.1458 52.3185L83.1859 51.5105L82.1759 71.7109C82.1759 73.529 80.5599 74.943 78.7418 74.943C78.1358 74.943 77.7318 74.741 77.1258 74.539L60.3594 62.6207C65.6116 57.5706 72.0757 53.9346 79.1458 52.3185ZM54.5013 70.0949L69.4496 83.4272C70.8637 84.6392 71.0657 86.6592 69.8536 88.0733C69.4496 88.6793 69.0456 88.8813 68.2376 89.0833L48.6432 94.7394C48.0372 86.2552 50.0572 77.5691 54.5013 70.0949V70.0949ZM51.0673 104.234L71.0657 100.8C72.6817 100.8 74.2977 101.81 74.4997 103.426C74.7017 104.032 74.7017 104.84 74.2977 105.446L66.6216 124.03C59.5514 119.384 53.8953 112.314 51.0673 104.234V104.234ZM96.9222 129.282C94.0941 129.888 91.2661 130.292 88.236 130.292C83.9939 130.292 79.5498 129.484 75.5098 128.272L85.408 110.294C86.418 109.082 88.034 108.678 89.448 109.486C90.0541 109.89 90.4581 110.294 91.0641 110.9L100.76 128.474C99.5483 128.676 98.3362 128.878 96.9222 129.282V129.282ZM121.567 111.708C118.537 116.556 114.295 120.798 109.446 123.828L101.568 104.84C101.164 103.224 101.972 101.608 103.386 101.002C103.992 100.8 104.598 100.598 105.204 100.598L125.405 104.032C124.395 106.86 123.183 109.486 121.567 111.708Z" fill="white"/>
</svg>
