<svg xmlns="http://www.w3.org/2000/svg" viewBox="0 0 24 24">
  <defs>
    <style>
      .cls-1 {
        fill: none;
      }

      .cls-2 {
        fill: #434447;
      }
    </style>
  </defs>
  <g id="Groupe_7721" data-name="Groupe 7721" transform="translate(-281 -502)">
    <rect id="Rectangle_11544" data-name="Rectangle 11544" class="cls-1" width="24" height="24" transform="translate(281 502)"/>
    <path id="Apple_logo_black" class="cls-2" d="M31.506,17.925a9.715,9.715,0,0,1-.961,1.727,8.776,8.776,0,0,1-1.238,1.5,2.4,2.4,0,0,1-1.591.7,3.987,3.987,0,0,1-1.469-.351,4.216,4.216,0,0,0-1.582-.35,4.359,4.359,0,0,0-1.627.35,4.376,4.376,0,0,1-1.405.37,2.26,2.26,0,0,1-1.627-.719A9.215,9.215,0,0,1,18.714,19.6a10.71,10.71,0,0,1-1.369-2.719,9.956,9.956,0,0,1-.575-3.24,5.918,5.918,0,0,1,.777-3.1A4.558,4.558,0,0,1,19.175,8.9a4.378,4.378,0,0,1,2.2-.621,5.181,5.181,0,0,1,1.7.4,5.471,5.471,0,0,0,1.35.4,8.077,8.077,0,0,0,1.5-.468,4.948,4.948,0,0,1,2.035-.361,4.32,4.32,0,0,1,3.384,1.782,3.764,3.764,0,0,0-2,3.42,3.772,3.772,0,0,0,1.239,2.842,4.07,4.07,0,0,0,1.238.812q-.149.432-.315.828ZM28.058,4.356a3.812,3.812,0,0,1-.977,2.5,3.329,3.329,0,0,1-2.765,1.365,2.782,2.782,0,0,1-.021-.339,3.917,3.917,0,0,1,1.037-2.527,3.992,3.992,0,0,1,1.263-.948A3.766,3.766,0,0,1,28.039,4a3.246,3.246,0,0,1,.019.357Z" transform="translate(268.23 500.91)"/>
  </g>
</svg>
