<svg xmlns="http://www.w3.org/2000/svg" viewBox="0 0 24 24">
  <defs>
    <style>
      .cls-1 {
        fill: none;
      }

      .cls-2 {
        fill: #8a8c8f;
      }

      .cls-3 {
        fill: #434447;
      }
    </style>
  </defs>
  <g id="Groupe_7724" data-name="Groupe 7724" transform="translate(-281 -634)">
    <rect id="Rectangle_11548" data-name="Rectangle 11548" class="cls-1" width="24" height="24" transform="translate(281 634)"/>
    <g id="Groupe_7703" data-name="Groupe 7703" transform="translate(-1537.846 -16537.098)">
      <path id="path1948" class="cls-2" d="M15,6.4a13.121,13.121,0,0,0-2.2.187c-1.945.344-2.3,1.063-2.3,2.389v1.751h4.6v.584H8.786a2.869,2.869,0,0,0-2.871,2.33,8.59,8.59,0,0,0,0,4.67c.327,1.36,1.107,2.33,2.442,2.33h1.58v-2.1a2.92,2.92,0,0,1,2.871-2.855H17.4a2.315,2.315,0,0,0,2.3-2.335V8.973a2.565,2.565,0,0,0-2.3-2.389A14.333,14.333,0,0,0,15,6.4ZM12.519,7.806a.876.876,0,1,1-.862.878A.872.872,0,0,1,12.519,7.806Z" transform="translate(1815.255 17166.873)"/>
      <path id="path1950" class="cls-3" d="M44.05,35.054v2.041a2.947,2.947,0,0,1-2.871,2.914h-4.59a2.344,2.344,0,0,0-2.3,2.335v4.376c0,1.245,1.083,1.978,2.3,2.335a7.688,7.688,0,0,0,4.59,0c1.157-.335,2.3-1.009,2.3-2.335V44.968h-4.59v-.584h6.888c1.336,0,1.833-.932,2.3-2.33a7.886,7.886,0,0,0,0-4.67c-.33-1.33-.96-2.33-2.3-2.33ZM41.468,46.136a.876.876,0,1,1-.862.873A.867.867,0,0,1,41.468,46.136Z" transform="translate(1791.474 17143.127)"/>
    </g>
  </g>
</svg>
