<svg xmlns="http://www.w3.org/2000/svg" viewBox="0 0 24 24">
  <defs>
    <style>
      .cls-1 {
        fill: none;
      }

      .cls-2 {
        fill: #8a8c8f;
      }

      .cls-2, .cls-3, .cls-4, .cls-5, .cls-6 {
        fill-rule: evenodd;
      }

      .cls-3 {
        fill: #2d3032;
      }

      .cls-4 {
        fill: #fff;
      }

      .cls-5 {
        fill: #434447;
      }

      .cls-6 {
        fill: #636567;
      }
    </style>
  </defs>
  <g id="Groupe_7726" data-name="Groupe 7726" transform="translate(-281 -700)">
    <rect id="Rectangle_11550" data-name="Rectangle 11550" class="cls-1" width="24" height="24" transform="translate(281 700)"/>
    <g id="Groupe_7704" data-name="Groupe 7704" transform="translate(-295.747 -1211)">
      <path id="polygon3282" class="cls-2" d="M49.541,47.276l-9.161,5.44,11.862-.8.914-11.961Z" transform="translate(542.89 1877.285)"/>
      <path id="polygon3293" class="cls-3" d="M144.006,107.687l-1.02-7.037-2.777,3.667Z" transform="translate(451.146 1821.501)"/>
      <path id="polygon3304" class="cls-3" d="M52.725,180.886l-7.469-.586-4.386,1.384Z" transform="translate(542.44 1748.302)"/>
      <path id="polygon3319" class="cls-2" d="M15.58,128.043l1.866-6.113-4.106.878Z" transform="translate(567.74 1801.945)"/>
      <path id="polygon3334" class="cls-2" d="M64.96,69.865,63.243,63.14,58.33,67.746Z" transform="translate(526.394 1855.974)"/>
      <path id="polygon3349" class="cls-2" d="M125.938,21.263l-4.644-3.793L120,21.651Z" transform="translate(469.718 1897.945)"/>
      <path id="polygon3362" class="cls-2" d="M115.945.54l-2.732,1.51L111.49.52Z" transform="translate(477.539 1913.522)"/>
      <path id="polygon3375" class="cls-2" d="M0,106.193l1.144-2.087L.219,101.62Z" transform="translate(580 1820.61)"/>
      <path id="path3377" class="cls-4" d="M1.94,8.151l.931,2.642,4.047-.908,4.62-4.294,1.3-4.141L10.789,0,7.3,1.306C6.2,2.329,4.065,4.353,3.988,4.391S2.579,6.949,1.94,8.151Z" transform="translate(578.217 1914)"/>
      <path id="path3400" class="cls-5" d="M9.726,7.979c2.383-2.363,5.456-3.759,6.635-2.57s-.071,4.081-2.455,6.443S8.489,15.688,7.31,14.5,7.343,10.342,9.726,7.979Z" transform="translate(573.701 1909.426)"/>
      <path id="path3413" class="cls-6" d="M41,127.792l1.851-6.132L49,123.635C46.777,125.72,44.3,127.482,41,127.792Z" transform="translate(542.32 1802.193)"/>
      <path id="path3424" class="cls-5" d="M120.56,64.4l1.578,6.252A17.4,17.4,0,0,0,126.478,64Z" transform="translate(469.204 1855.183)"/>
      <path id="path3435" class="cls-6" d="M140.724,5.959c.632-1.906.777-4.641-2.2-5.149l-2.444,1.35Z" transform="translate(454.941 1913.256)"/>
      <path id="path3437" class="cls-6" d="M0,135.105c.087,3.146,2.357,3.193,3.324,3.221L1.091,133.11Z" transform="translate(580 1791.67)"/>
      <path id="path3448" class="cls-6" d="M120.669,64.571c1.427.877,4.3,2.638,4.361,2.671a10.058,10.058,0,0,0,1.5-3.062Z" transform="translate(469.103 1855.018)"/>
      <path id="path3459" class="cls-5" d="M63.83,121.66l2.475,4.775a16,16,0,0,0,3.659-2.8Z" transform="translate(521.339 1802.193)"/>
      <path id="path3472" class="cls-5" d="M9.371,133.178l-.351,4.176a2.558,2.558,0,0,0,2.527.912C10.856,136.546,9.476,133.109,9.371,133.178Z" transform="translate(571.711 1791.608)"/>
      <path id="path3485" class="cls-5" d="M135.9,2.134l4.917.69A2.686,2.686,0,0,0,138.375.77Z" transform="translate(455.106 1913.292)"/>
    </g>
  </g>
</svg>
