<svg xmlns="http://www.w3.org/2000/svg" viewBox="0 0 24 24">
  <defs>
    <style>
      .cls-1 {
        fill: none;
      }

      .cls-2 {
        fill: #434447;
      }

      .cls-3 {
        fill: #5f6164;
      }

      .cls-4 {
        fill: #fff;
      }
    </style>
  </defs>
  <g id="Groupe_7728" data-name="Groupe 7728" transform="translate(-281 -766)">
    <rect id="Rectangle_11552" data-name="Rectangle 11552" class="cls-1" width="24" height="24" transform="translate(281 766)"/>
    <g id="Groupe_7706" data-name="Groupe 7706" transform="translate(252.247 66)">
      <path id="Tracé_10237" data-name="Tracé 10237" class="cls-2" d="M4.544.1h8.912A3.545,3.545,0,0,1,17,3.644v8.912A3.545,3.545,0,0,1,13.456,16.1H4.544A3.545,3.545,0,0,1,1,12.556V3.644A3.545,3.545,0,0,1,4.544.1Z" transform="translate(31.766 703.901)"/>
      <path id="Tracé_10238" data-name="Tracé 10238" class="cls-3" d="M13.518,13.092a2.182,2.182,0,0,0-1.657-1.035c-1,0-1.589,1.035-3.608,1.035a7.956,7.956,0,0,1-6.61-3.746h0L0,7.578V3.544A3.545,3.545,0,0,1,3.544,0H6.707L9.047,2.373h0c5.283,3.591,3.575,7.544,3.575,7.544S14.122,11.608,13.518,13.092Z" transform="translate(32.753 704)"/>
      <path id="Tracé_10239" data-name="Tracé 10239" class="cls-4" d="M137.206,186.2c5.282,3.59,3.572,7.544,3.572,7.544s1.5,1.692.9,3.176a2.182,2.182,0,0,0-1.657-1.035c-1,0-1.589,1.035-3.608,1.035a7.956,7.956,0,0,1-6.61-3.746c4.041,2.663,6.8.776,6.8.776-1.823-1.059-5.7-6.111-5.7-6.111a31.393,31.393,0,0,0,4.833,3.625,38.628,38.628,0,0,1-3.315-4.229,56.993,56.993,0,0,0,5.834,4.73A6.492,6.492,0,0,0,137.206,186.2Z" transform="translate(-95.392 520.174)"/>
    </g>
  </g>
</svg>
