<svg xmlns="http://www.w3.org/2000/svg" viewBox="0 0 24 24">
  <defs>
    <style>
      .cls-1 {
        fill: none;
      }

      .cls-2 {
        fill: #434447;
      }

      .cls-3 {
        fill: #fff;
      }
    </style>
  </defs>
  <g id="Groupe_7731" data-name="Groupe 7731" transform="translate(-281 -865)">
    <rect id="Rectangle_11555" data-name="Rectangle 11555" class="cls-1" width="24" height="24" transform="translate(281 865)"/>
    <path id="Tracé_12233" data-name="Tracé 12233" class="cls-2" d="M4.544.1h8.912A3.545,3.545,0,0,1,17,3.644v8.912A3.545,3.545,0,0,1,13.456,16.1H4.544A3.545,3.545,0,0,1,1,12.556V3.644A3.545,3.545,0,0,1,4.544.1Z" transform="translate(284.013 868.9)"/>
    <path id="Tracé_12234" data-name="Tracé 12234" class="cls-3" d="M-3.64-1.058l.967-3.208h.979L-3.18,0H-4.1L-5.577-4.266H-4.6ZM-1.293,0V-4.266H.2a1.962,1.962,0,0,1,1.178.3,1.017,1.017,0,0,1,.4.872.964.964,0,0,1-.161.552.931.931,0,0,1-.448.35.9.9,0,0,1,.517.331.979.979,0,0,1,.189.609,1.126,1.126,0,0,1-.393.932A1.767,1.767,0,0,1,.365,0Zm.879-1.857V-.706H.338A.727.727,0,0,0,.823-.854.507.507,0,0,0,1-1.263a.536.536,0,0,0-.606-.595Zm0-.621h.65Q.9-2.49.9-3.009a.49.49,0,0,0-.168-.417A.886.886,0,0,0,.2-3.554H-.415ZM4.742-4.31v.7H4.66a1.438,1.438,0,0,0-.924.3,1.214,1.214,0,0,0-.42.806,1.153,1.153,0,0,1,.858-.346,1.087,1.087,0,0,1,.885.4,1.6,1.6,0,0,1,.328,1.049,1.571,1.571,0,0,1-.18.753,1.292,1.292,0,0,1-.51.524,1.481,1.481,0,0,1-.746.188A1.383,1.383,0,0,1,2.862-.41a1.82,1.82,0,0,1-.415-1.251v-.3A2.738,2.738,0,0,1,2.71-3.192a1.923,1.923,0,0,1,.753-.823A2.206,2.206,0,0,1,4.6-4.31ZM3.916-2.174a.676.676,0,0,0-.372.107.644.644,0,0,0-.246.283v.258a1.144,1.144,0,0,0,.167.664.539.539,0,0,0,.469.239.533.533,0,0,0,.441-.215A.879.879,0,0,0,4.542-1.4a.878.878,0,0,0-.17-.562A.553.553,0,0,0,3.916-2.174Z" transform="translate(293 879)"/>
  </g>
</svg>
