<svg xmlns="http://www.w3.org/2000/svg" viewBox="0 0 24 24">
  <defs>
    <style>
      .cls-1 {
        fill: none;
      }

      .cls-2 {
        fill: #434447;
      }

      .cls-3 {
        fill: #5f6064;
      }

      .cls-4 {
        fill: #8a8c8f;
      }

      .cls-5 {
        fill: #fff;
      }
    </style>
  </defs>
  <g id="Groupe_7711" data-name="Groupe 7711" transform="translate(-281 -172)">
    <rect id="Rectangle_11534" data-name="Rectangle 11534" class="cls-1" width="24" height="24" transform="translate(281 172)"/>
    <g id="Groupe_7699" data-name="Groupe 7699" transform="translate(255.037 -33.355)">
      <path id="Tracé_12029" data-name="Tracé 12029" class="cls-2" d="M19.589,6.741a1.944,1.944,0,0,0-.239-.978,1.87,1.87,0,0,0-.709-.69Q14.729,2.817,10.815.564A1.921,1.921,0,0,0,8.733.585C7.7,1.2,2.5,4.174.949,5.071A1.809,1.809,0,0,0,0,6.74q0,4.536,0,9.072a1.953,1.953,0,0,0,.229.959,1.864,1.864,0,0,0,.719.709c1.549.9,6.746,3.874,7.784,4.487a1.921,1.921,0,0,0,2.083.021q3.911-2.258,7.826-4.508a1.865,1.865,0,0,0,.719-.709,1.955,1.955,0,0,0,.229-.959s0-6.047,0-9.071" transform="translate(27.963 206.17)"/>
      <path id="Tracé_12033" data-name="Tracé 12033" class="cls-3" d="M12.584,143.509l-9.6,5.525a1.864,1.864,0,0,0,.719.709c1.549.9,6.746,3.874,7.784,4.487a1.921,1.921,0,0,0,2.083.021q3.911-2.258,7.826-4.508a1.865,1.865,0,0,0,.719-.709l-9.536-5.524" transform="translate(25.204 73.908)"/>
      <path id="Tracé_12034" data-name="Tracé 12034" class="cls-3" d="M91.1,145.146a3.239,3.239,0,0,0,5.635-.019l-2.793-1.618L91.1,145.146" transform="translate(-56.156 73.908)"/>
      <path id="Tracé_12030" data-name="Tracé 12030" class="cls-4" d="M137.946,72.937a1.944,1.944,0,0,0-.239-.978l-9.524,5.484,9.536,5.524a1.955,1.955,0,0,0,.229-.959s0-6.047,0-9.071" transform="translate(-90.394 139.974)"/>
      <path id="Tracé_12032" data-name="Tracé 12032" class="cls-5" d="M189.042,130.708H188.3v.745h-.745v-.745h-.745v-.745h.745v-.745h.745v.745h.745v.745m-2.719,0h-.745v.745h-.745v-.745h-.745v-.745h.745v-.745h.745v.745h.745v.745" transform="translate(-142.015 87.103)"/>
      <path id="Tracé_12031" data-name="Tracé 12031" class="cls-5" d="M52.244,67.113a3.239,3.239,0,1,1-.021-3.214l2.831-1.63a6.505,6.505,0,1,0,.017,6.482l-2.827-1.638" transform="translate(-11.664 151.922)"/>
    </g>
  </g>
</svg>
