<svg xmlns="http://www.w3.org/2000/svg" viewBox="0 0 24 24">
  <defs>
    <style>
      .cls-1 {
        fill: none;
      }

      .cls-2 {
        fill: #434447;
      }
    </style>
  </defs>
  <g transform="translate(-281 -337)">
    <rect class="cls-1" width="24" height="24" transform="translate(281 337)"/>
    <g transform="translate(225.718 -296.707)">
      <path class="cls-2" d="M39.845,97.821c-.045,0-.057-.023-.034-.057l.239-.307a.163.163,0,0,1,.125-.057h4.057c.045,0,.057.034.034.068l-.193.3a.173.173,0,0,1-.114.068Z" transform="translate(17.618 545.761)"/>
      <path class="cls-2" d="M24.745,107.021c-.045,0-.057-.023-.034-.057l.239-.307a.163.163,0,0,1,.125-.057h5.182a.052.052,0,0,1,.057.068l-.091.273a.1.1,0,0,1-.1.068Z" transform="translate(31.002 537.607)"/>
      <path class="cls-2" d="M48.945,116.221c-.045,0-.057-.034-.034-.068l.159-.284a.151.151,0,0,1,.114-.068h2.273c.045,0,.068.034.068.08l-.023.273a.085.085,0,0,1-.08.08Z" transform="translate(9.553 529.453)"/>
      <path class="cls-2" d="M87.612,80.3c-.716.182-1.2.318-1.909.5-.17.045-.182.057-.33-.114a1.521,1.521,0,0,0-.534-.432,1.976,1.976,0,0,0-2.057.17,2.417,2.417,0,0,0-1.159,2.159,1.782,1.782,0,0,0,1.534,1.784,2.1,2.1,0,0,0,1.932-.75c.1-.125.193-.261.307-.42H83.2c-.239,0-.3-.148-.216-.341.148-.352.421-.943.58-1.239a.307.307,0,0,1,.284-.182h4.137c-.023.307-.023.614-.068.921a4.847,4.847,0,0,1-.932,2.228,4.734,4.734,0,0,1-3.239,1.932,4.026,4.026,0,0,1-3.057-.75,3.57,3.57,0,0,1-1.443-2.523,4.461,4.461,0,0,1,.966-3.33A5.043,5.043,0,0,1,83.4,77.949a3.916,3.916,0,0,1,3.012.557,3.562,3.562,0,0,1,1.318,1.6C87.794,80.211,87.748,80.268,87.612,80.3Z" transform="translate(-17.317 563.076)"/>
      <path class="cls-2" d="M154.554,87.407a4.263,4.263,0,0,1-2.773-1,3.564,3.564,0,0,1-1.227-2.193,4.339,4.339,0,0,1,.921-3.432,4.764,4.764,0,0,1,3.182-1.9,4.216,4.216,0,0,1,3.239.58A3.538,3.538,0,0,1,159.5,82a4.387,4.387,0,0,1-1.307,3.853,5.208,5.208,0,0,1-2.728,1.455C155.156,87.362,154.85,87.373,154.554,87.407Zm2.7-4.591a3.273,3.273,0,0,0-.034-.375,1.872,1.872,0,0,0-2.318-1.512,2.483,2.483,0,0,0-1.989,1.977,1.872,1.872,0,0,0,1.046,2.148,2.083,2.083,0,0,0,1.852-.068A2.487,2.487,0,0,0,157.259,82.816Z" transform="translate(-80.498 562.255)"/>
    </g>
  </g>
</svg>
