<svg xmlns="http://www.w3.org/2000/svg" viewBox="0 0 24 24">
  <defs>
    <style>
      .cls-1 {
        fill: none;
      }

      .cls-2 {
        fill: #434447;
        fill-rule: evenodd;
      }
    </style>
  </defs>
  <g id="Groupe_7718" data-name="Groupe 7718" transform="translate(-281 -403)">
    <rect id="Rectangle_11541" data-name="Rectangle 11541" class="cls-1" width="24" height="24" transform="translate(281 403)"/>
    <g id="Groupe_7693" data-name="Groupe 7693" transform="translate(250.224 18.193)">
      <path id="Tracé_12003" data-name="Tracé 12003" class="cls-2" d="M96.523,349.592s-.875.509.623.681a13.109,13.109,0,0,0,4.742-.2,8.294,8.294,0,0,0,1.261.615c-4.483,1.921-10.147-.111-6.626-1.1Z" transform="translate(-57.307 53.591)"/>
      <path id="Tracé_12004" data-name="Tracé 12004" class="cls-2" d="M83.243,300.1s-.981.727.518.881a18.5,18.5,0,0,0,6.119-.294,2.706,2.706,0,0,0,.942.574c-5.42,1.585-11.457.125-7.579-1.162Z" transform="translate(-44.575 100.571)"/>
      <path id="Tracé_12005" data-name="Tracé 12005" class="cls-2" d="M178.511,98.61a1.677,1.677,0,0,1-.29,2.416s2.8-1.448,1.517-3.261c-1.2-1.691-2.126-2.531,2.869-5.427,0,0-7.84,1.958-4.1,6.272Z" transform="translate(-135.225 297.813)"/>
      <path id="Tracé_12006" data-name="Tracé 12006" class="cls-2" d="M25.22,382.568s.647.534-.713.947c-2.587.784-10.771,1.02-13.043.031-.816-.356.715-.849,1.2-.953a3.13,3.13,0,0,1,.789-.089c-.909-.64-5.873,1.257-2.521,1.8,9.141,1.482,16.662-.667,14.291-1.737Z" transform="translate(23.996 22.47)"/>
      <path id="Tracé_12007" data-name="Tracé 12007" class="cls-2" d="M50.109,248.752s-4.162.989-1.474,1.348a31.254,31.254,0,0,0,5.506-.06c1.723-.145,3.452-.454,3.452-.454a7.343,7.343,0,0,0-1.046.56c-4.227,1.112-12.392.594-10.041-.543a7.867,7.867,0,0,1,3.6-.852Z" transform="translate(-10.473 149.327)"/>
      <path id="Tracé_12008" data-name="Tracé 12008" class="cls-2" d="M271.237,248.857c4.3-2.232,2.31-4.378.923-4.089a3.246,3.246,0,0,0-.491.132.783.783,0,0,1,.367-.283c2.743-.964,4.853,2.844-.885,4.353a.38.38,0,0,0,.086-.113Z" transform="translate(-224.134 153.394)"/>
      <path id="Tracé_12009" data-name="Tracé 12009" class="cls-2" d="M122.512,0s2.379,2.38-2.257,6.04c-3.718,2.937-.848,4.61,0,6.524-2.171-1.958-3.763-3.682-2.695-5.286,1.568-2.355,5.913-3.5,4.953-7.277Z" transform="translate(-77.999 385.473)"/>
      <path id="Tracé_12010" data-name="Tracé 12010" class="cls-2" d="M73.13,411.32c4.124.264,10.458-.147,10.607-2.1,0,0-.288.74-3.408,1.327a33.884,33.884,0,0,1-10.437.16s.527.436,3.238.611Z" transform="translate(-33.07 -3.018)"/>
    </g>
  </g>
</svg>
