<svg xmlns="http://www.w3.org/2000/svg" viewBox="0 0 24 24">
  <defs>
    <style>
      .cls-1 {
        fill: none;
      }

      .cls-2 {
        fill: #434447;
      }
    </style>
  </defs>
  <g id="Groupe_7723" data-name="Groupe 7723" transform="translate(-281 -601)">
    <rect id="Rectangle_11547" data-name="Rectangle 11547" class="cls-1" width="24" height="24" transform="translate(281 601)"/>
    <g id="Groupe_7696" data-name="Groupe 7696" transform="translate(282.177 -213.611)">
      <path id="Tracé_12025" data-name="Tracé 12025" class="cls-2" d="M236.408,425.049h-1.14l-.468,2.41h1.065s1.3.033,1.356-1.562A.737.737,0,0,0,236.408,425.049Z" transform="translate(-229.835 400.692)"/>
      <path id="Tracé_12024" data-name="Tracé 12024" class="cls-2" d="M676.908,425.049h-1.14l-.468,2.41h1.065s1.3.033,1.356-1.562A.736.736,0,0,0,676.908,425.049Z" transform="translate(-660.605 400.692)"/>
      <path id="Tracé_12023" data-name="Tracé 12023" class="cls-2" d="M20.823,241.9C14.846,241.9,10,244.453,10,247.6s4.846,5.7,10.823,5.7,10.823-2.551,10.823-5.7S26.8,241.9,20.823,241.9Zm-4.846,7.351-1.153-.009-.325,1.515H13.265l1.113-5.7s1.581.02,2.62,0,2.059.713,1.581,2.374A2.535,2.535,0,0,1,15.977,249.251Zm5.551,0s.3-1.325.426-2.244c.053-.378.287-1.02-.331-1.02l-1.29,0-.652,3.271H18.46l1.14-5.727h1.25l-.314,1.531h1.29s1.71-.135,1.506,1.277-.583,2.918-.583,2.918Zm6.779-1.818a2.53,2.53,0,0,1-2.6,1.818l-1.153-.009-.325,1.515H22.994l1.113-5.7s1.581.02,2.62,0S28.784,245.77,28.306,247.433Z" transform="translate(-10 579.795)"/>
    </g>
  </g>
</svg>
