<svg xmlns="http://www.w3.org/2000/svg" viewBox="0 0 24.013 24">
  <defs>
    <style>
      .cls-1 {
        fill: none;
      }

      .cls-2 {
        fill: #434447;
      }

      .cls-3 {
        fill: #fff;
      }
    </style>
  </defs>
  <g id="abap" transform="translate(-281 -106)">
    <rect id="Rectangle_11532" data-name="Rectangle 11532" class="cls-1" width="24" height="24" transform="translate(281 106)"/>
    <g id="Groupe_7708" data-name="Groupe 7708" transform="translate(-19.588 -470.73)">
      <path id="Tracé_12223" data-name="Tracé 12223" class="cls-2" d="M-3.94.1H13.1a3.485,3.485,0,0,1,3.485,3.485v8.761A3.485,3.485,0,0,1,13.1,15.83H-3.94a3.485,3.485,0,0,1-3.485-3.485V3.585A3.485,3.485,0,0,1-3.94.1Z" transform="translate(308.013 580.9)"/>
      <path id="Tracé_12230" data-name="Tracé 12230" class="cls-3" d="M-8.975-1.55V-.073h-.864V-4.267H-8.2a1.893,1.893,0,0,1,.831.173,1.274,1.274,0,0,1,.552.491,1.369,1.369,0,0,1,.193.724,1.2,1.2,0,0,1-.422.972,1.757,1.757,0,0,1-1.168.356Zm0-.7H-8.2a.759.759,0,0,0,.523-.161.587.587,0,0,0,.18-.461.692.692,0,0,0-.181-.5.678.678,0,0,0-.5-.2h-.792Zm3.8,1.483h1.835v.694h-2.7V-4.267h.864ZM-2.633.287h-.619l1.544-4.554h.619Zm4.171-1.46a.443.443,0,0,0-.173-.376,2.267,2.267,0,0,0-.622-.277,4.41,4.41,0,0,1-.711-.287,1.162,1.162,0,0,1-.714-1.04,1.013,1.013,0,0,1,.192-.606,1.249,1.249,0,0,1,.55-.416,2.071,2.071,0,0,1,.805-.15,1.885,1.885,0,0,1,.8.163,1.275,1.275,0,0,1,.546.459,1.2,1.2,0,0,1,.194.674H1.541a.566.566,0,0,0-.181-.448.746.746,0,0,0-.51-.16A.8.8,0,0,0,.357-3.5a.422.422,0,0,0-.176.353.4.4,0,0,0,.206.343,2.327,2.327,0,0,0,.606.259A2.62,2.62,0,0,1,2.068-2a1.1,1.1,0,0,1,.337.818,1.009,1.009,0,0,1-.412.854,1.8,1.8,0,0,1-1.109.31A2.141,2.141,0,0,1,0-.192,1.4,1.4,0,0,1-.6-.678a1.243,1.243,0,0,1-.209-.714H.055q0,.694.83.694a.807.807,0,0,0,.481-.125A.408.408,0,0,0,1.538-1.173Zm4.891-.9a2.527,2.527,0,0,1-.19,1.021,1.753,1.753,0,0,1-.527.7l.7.547-.55.487L4.966-.041a1.89,1.89,0,0,1-.317.026,1.745,1.745,0,0,1-.93-.251,1.665,1.665,0,0,1-.634-.716,2.459,2.459,0,0,1-.228-1.07v-.207a2.518,2.518,0,0,1,.223-1.09,1.662,1.662,0,0,1,.631-.723,1.735,1.735,0,0,1,.932-.252,1.735,1.735,0,0,1,.932.252,1.662,1.662,0,0,1,.631.723,2.511,2.511,0,0,1,.223,1.087Zm-.876-.19a1.765,1.765,0,0,0-.236-1,.77.77,0,0,0-.674-.343.77.77,0,0,0-.671.338,1.745,1.745,0,0,0-.239.992v.2a1.787,1.787,0,0,0,.236,1,.768.768,0,0,0,.68.354.761.761,0,0,0,.668-.341,1.777,1.777,0,0,0,.236-1Zm2.373,1.5H9.761v.694h-2.7V-4.267h.864Z" transform="translate(312.957 590.904)"/>
    </g>
  </g>
</svg>
