<svg xmlns="http://www.w3.org/2000/svg" viewBox="0 0 24 24">
  <defs>
    <style>
      .cls-1 {
        fill: none;
      }

      .cls-2 {
        fill: #8a8c8f;
      }

      .cls-3 {
        fill: #434447;
      }
    </style>
  </defs>
  <g id="Groupe_7729" data-name="Groupe 7729" transform="translate(-281 -799)">
    <rect id="Rectangle_11553" data-name="Rectangle 11553" class="cls-1" width="24" height="24" transform="translate(281 799)"/>
    <g id="Groupe_7708" data-name="Groupe 7708" transform="translate(2933.035 -18764.982)">
      <path id="Tracé_12049" data-name="Tracé 12049" class="cls-2" d="M342.865,463.277l-3.594,1.173-3.126,1.38-.875.231c-.223.212-.456.427-.709.644-.277.239-.535.456-.733.614a5.472,5.472,0,0,0-.712.706,3.2,3.2,0,0,0-.527.891,1.5,1.5,0,0,0,.212,1.345,4.763,4.763,0,0,0,1.964,1.475,12.469,12.469,0,0,0,1.728.579,22.862,22.862,0,0,0,3.683.524,4.22,4.22,0,0,0,.475,0,6.48,6.48,0,0,0,.35-.665,16.824,16.824,0,0,0,1.274-3.371,15.971,15.971,0,0,0,.326-2.336c.019-.263.027-1.146.011-1.445a10.14,10.14,0,0,0-.136-1.274.294.294,0,0,1-.008-.111,4.677,4.677,0,0,1,.486-.147l-.09-.212h0Zm-.82.481a8.8,8.8,0,0,1,.141,1.361.724.724,0,0,1,0,.185c-.022,0-.459-.258-.771-.454-.272-.171-.788-.513-.869-.579-.027-.019-.025-.022.2-.1C341.119,464.046,342.015,463.758,342.045,463.758Zm-1.831.6a.9.9,0,0,1,.236.128,16.838,16.838,0,0,0,1.646.915c.1.043.111.027-.12.185a11.836,11.836,0,0,1-1.866,1c-.133.06-.244.106-.247.106a.706.706,0,0,1,.033-.149,8.008,8.008,0,0,0,.291-1.909c0-.272,0-.272.027-.28C340.209,464.361,340.211,464.361,340.214,464.361Zm-.378.144a5.86,5.86,0,0,1-.016.79,6.913,6.913,0,0,1-.25,1.182,1.82,1.82,0,0,1-.062.19,4.781,4.781,0,0,1-.505-.492,3.675,3.675,0,0,1-.5-.728,2.284,2.284,0,0,1-.152-.369C338.394,465.048,339.826,464.494,339.837,464.5Zm-1.776.7a.01.01,0,0,1,.008,0,.515.515,0,0,1,.041.1,3.67,3.67,0,0,0,.451.807,4.593,4.593,0,0,0,.627.676c.065.054.125.106.133.114s.022.014-.421.182c-.513.2-1.073.391-1.714.6l-.459.149c-.024.008-.016-.005.054-.117a15.276,15.276,0,0,0,1.073-2.162c.046-.12.092-.239.1-.266a.1.1,0,0,1,.06-.071A.262.262,0,0,1,338.06,465.2Zm-.543.225a6.1,6.1,0,0,1-.266.562c-.263.513-.551,1.019-.937,1.632-.065.106-.128.2-.136.215s-.019.014-.062-.071a2.489,2.489,0,0,1-.209-.63,2.536,2.536,0,0,1,.014-.809c.035-.168.033-.166.114-.206C336.381,465.944,337.506,465.417,337.517,465.428Zm4.685.19v.114a14.778,14.778,0,0,1-.16,2.043c-.016.106-.03.193-.033.2l-.171-.049a7,7,0,0,1-1.249-.535,5.524,5.524,0,0,1-.636-.391s.117-.062.25-.133a15.993,15.993,0,0,0,1.486-.872c.166-.111.416-.291.47-.34Zm-6.736.8c.011,0,.008.022-.008.12-.011.071-.024.2-.03.291a2.01,2.01,0,0,0,.239,1.092,2.25,2.25,0,0,1,.1.206c-.019.016-1.817.543-2.382.7l-.326.09c-.019.005-.022,0-.014-.044a2.854,2.854,0,0,1,.79-1.361,3.515,3.515,0,0,1,.894-.684c.277-.158.7-.394.736-.4C335.461,466.422,335.463,466.422,335.466,466.422Zm4.237.758a1.1,1.1,0,0,1,.147.079,8.183,8.183,0,0,0,2.081.809l.063.014-.087.049c-.361.2-1.548.7-2.762,1.149-.177.065-.35.13-.383.144a.194.194,0,0,1-.062.019s.049-.1.111-.215a13.4,13.4,0,0,0,.856-1.948C339.687,467.229,339.7,467.183,339.7,467.18Zm-.432.141a.784.784,0,0,1-.046.125,17.189,17.189,0,0,1-.943,1.9c-.1.179-.185.323-.187.323s-.084-.049-.182-.109a5.583,5.583,0,0,1-1.421-1.209l-.049-.06.247-.068a17.736,17.736,0,0,0,2.385-.823C339.182,467.357,339.269,467.322,339.272,467.322Zm2.684.937h0c0,.062-.136.622-.25,1.027-.1.34-.177.606-.326,1.076-.065.206-.122.378-.125.378a.179.179,0,0,1-.035-.008,11.354,11.354,0,0,1-2.208-.622c-.19-.076-.462-.2-.478-.212a3.174,3.174,0,0,1,.364-.171c1.236-.541,2.518-1.154,2.958-1.418A.353.353,0,0,1,341.955,468.259Zm-6.2.212c.005.005-.34.5-.823,1.179-.168.236-.364.513-.437.617s-.185.266-.247.364l-.114.177-.122-.1a4.522,4.522,0,0,1-.505-.516,2.229,2.229,0,0,1-.454-.877c-.03-.13-.03-.2,0-.2s.766-.182,1.445-.34c.378-.087.815-.19.972-.228Zm.348.133.087.1a5.1,5.1,0,0,0,1.274,1.043.714.714,0,0,1,.147.1c-.019.014-1.679.6-2.447.869-.432.152-.788.274-.79.274a.46.46,0,0,1-.054-.035l-.049-.035.079-.114c.255-.369.576-.774,1.274-1.616Zm2.168,1.551s.122.041.269.1a8.7,8.7,0,0,0,1.008.312,11.162,11.162,0,0,0,1.524.263c.06.005.092.011.082.019s-.418.144-.712.236c-.467.147-1.893.568-3.056.9-.215.063-.4.114-.41.117a.216.216,0,0,1-.117-.03,1.967,1.967,0,0,1,.144-.182,16.119,16.119,0,0,0,1.1-1.483C338.2,470.269,338.275,470.157,338.275,470.155Zm-.478.014s-.19.312-.527.845c-.144.225-.3.481-.361.57s-.136.223-.182.3l-.079.139-.041-.011c-.1-.027-.785-.269-.967-.342a6.731,6.731,0,0,1-.633-.291,2.643,2.643,0,0,1-.467-.3c.005,0,.378-.1.826-.225,1.19-.323,1.85-.511,2.282-.646A1.09,1.09,0,0,1,337.8,470.168Zm3.382.793h0c.011.027-.429,1.249-.589,1.635-.035.087-.049.109-.068.106-.046,0-.684-.092-1.073-.149-.676-.1-1.812-.3-2.1-.367l-.065-.014.4-.092c.869-.2,1.288-.3,1.711-.432a12.1,12.1,0,0,0,1.6-.617A1.319,1.319,0,0,1,341.178,470.961Z" transform="translate(-2980.549 19112.098)"/>
      <path id="Tracé_12050" data-name="Tracé 12050" class="cls-2" d="M460.172,82.734a17.258,17.258,0,0,0-1.646.592,10.274,10.274,0,0,0-1.893.951,1.435,1.435,0,0,0-.367.367.253.253,0,0,0-.016.092l.364.345.867.277,2.062.369,2.358.4.024-.2c-.008,0-.014,0-.022,0l-.31-.049-.062-.111c-.32-.565-.674-1.266-.88-1.738a8.994,8.994,0,0,1-.4-1.095c-.046-.185-.052-.2-.081-.2h0Zm-.044.139h0s.014.079.024.168a5.672,5.672,0,0,0,.263,1.144c.1.3.1.283-.016.247-.277-.076-1.518-.291-2.417-.416-.144-.019-.266-.038-.266-.041s.649-.356.94-.492C459.031,83.313,460.052,82.887,460.128,82.873ZM457.51,84.09l.106.035a16.19,16.19,0,0,0,2.822.538l.168.016a1.252,1.252,0,0,1-.171.09c-.386.193-.809.429-1.1.611a1.124,1.124,0,0,1-.177.1c-.011,0-.068-.011-.128-.019l-.109-.016-.272-.266c-.478-.464-.853-.823-1-.959Zm-.109.084.383.478c.209.263.421.521.467.579a.882.882,0,0,1,.081.106c-.011.008-.554-.1-.842-.163s-.418-.1-.6-.158l-.149-.049v-.038c0-.182.234-.454.625-.731Zm3.254.652c.011,0,.024.024.057.1.092.2.38.752.451.858.022.035.06.038-.323-.024-.921-.149-1.217-.2-1.217-.2a.282.282,0,0,1,.063-.041,5.3,5.3,0,0,0,.828-.573l.13-.109C460.647,84.826,460.652,84.823,460.655,84.826Z" transform="translate(-3101.561 19484.266)"/>
      <path id="Tracé_12051" data-name="Tracé 12051" class="cls-3" d="M394.256,167.757a.271.271,0,0,0,0,.236,1.074,1.074,0,0,0,.255.3s1.209,1.179,1.355,1.347a3.776,3.776,0,0,1,.986,2.58,4.178,4.178,0,0,1-.429,1.953,12.685,12.685,0,0,1-3.6,4.1l.269-.09a8.628,8.628,0,0,1,.964-.573,34.367,34.367,0,0,1,4.484-2.007,55.93,55.93,0,0,1,9.1-2.439l.247-.038-.038-.06a8.378,8.378,0,0,0-.546-.769,6.527,6.527,0,0,0-1.928-1.605,14.3,14.3,0,0,0-4.186-1.4c-.329-.065-1.051-.19-1.638-.28-1.244-.193-2.048-.326-2.934-.478-.318-.054-.793-.136-1.108-.2a7.038,7.038,0,0,1-.72-.193C394.6,168.064,394.316,167.988,394.256,167.757Zm.7.679a.755.755,0,0,1,.1.033c.1.035.236.076.394.12q.179.049.359.1c.163.041.3.079.3.079.019.019.293.9.386,1.233.035.128.062.236.06.236a.549.549,0,0,1-.068-.106,5.653,5.653,0,0,0-1.4-1.584A1.158,1.158,0,0,1,394.957,168.436Zm1.336.369a1.067,1.067,0,0,1,.147.024c.462.1,1.29.261,1.82.35a.665.665,0,0,1,.16.035.274.274,0,0,1-.073.046c-.09.046-.451.261-.57.342a5.2,5.2,0,0,0-.769.614c-.079.079-.147.144-.147.144s-.016-.046-.03-.1a8.805,8.805,0,0,0-.486-1.331,1.166,1.166,0,0,1-.054-.125C396.29,168.808,396.29,168.806,396.293,168.806Zm2.352.448a1.047,1.047,0,0,1,.1.3,4.445,4.445,0,0,1,.13,1.244c-.005.114-.011.22-.016.234l-.008.027-.141-.046c-.291-.092-.763-.231-1.168-.345-.231-.062-.418-.12-.418-.125a6.424,6.424,0,0,1,.481-.481A12.614,12.614,0,0,1,398.645,169.254Zm.187.027c.008-.008,1.125.185,1.632.283.378.073.926.187.959.2.016.005-.041.038-.223.119a11.79,11.79,0,0,0-1.779.967c-.139.092-.255.168-.258.168a1.478,1.478,0,0,1-.005-.174,3.794,3.794,0,0,0-.293-1.478A.414.414,0,0,1,398.833,169.281Zm2.887.57a2.042,2.042,0,0,1-.06.359,6.809,6.809,0,0,1-.684,1.57,1.784,1.784,0,0,1-.114.185,1.155,1.155,0,0,1-.163-.087,8.849,8.849,0,0,0-1.065-.521c-.109-.046-.2-.084-.206-.09-.019-.016.856-.595,1.317-.872C401.112,170.172,401.709,169.84,401.72,169.851Zm.206.033c.024,0,.519.136.777.212a16.025,16.025,0,0,1,1.85.676l.2.09-.138.033a20.245,20.245,0,0,0-3.132.97c-.079.033-.149.06-.155.06a.7.7,0,0,1,.057-.139,5.5,5.5,0,0,0,.524-1.809C401.91,169.925,401.918,169.884,401.927,169.884ZM397,171.014c.008-.008.386.081.589.138.31.087.967.307.967.323s-.073.065-.16.141c-.356.3-.7.608-1.108,1-.122.117-.225.212-.231.212s-.008-.016-.005-.038a6.124,6.124,0,0,0-.038-1.638C397.01,171.082,397,171.017,397,171.014Zm7.934.008a5.224,5.224,0,0,1-.288.448c-.163.234-.4.543-.943,1.222-.285.359-.606.763-.712.9s-.2.25-.2.25a.931.931,0,0,1-.076-.109,5.612,5.612,0,0,0-1.1-1.214c-.081-.068-.171-.141-.2-.163a.3.3,0,0,1-.054-.046c0-.008.462-.206.812-.348.614-.25,1.45-.549,2.078-.742C404.583,171.117,404.933,171.017,404.939,171.022Zm.209.054a.626.626,0,0,1,.155.076,9.212,9.212,0,0,1,1.817,1.364c.144.141.5.511.494.513l-.272.022a26.776,26.776,0,0,0-4.015.668c-.1.022-.179.041-.185.041s.1-.106.234-.234a6.949,6.949,0,0,0,1.649-2.195c.062-.133.117-.247.122-.255Zm-6.049.619c.038.008.391.174.657.307.244.122.611.318.63.334,0,0-.128.071-.288.149-.511.255-.948.5-1.4.774-.13.079-.239.144-.242.144s-.008-.011.065-.144a5.671,5.671,0,0,0,.551-1.5C399.08,171.723,399.091,171.7,399.1,171.7Zm-.353.065a5.2,5.2,0,0,1-.141.524,6.687,6.687,0,0,1-.481,1.1c-.044.076-.109.187-.144.25l-.068.109-.152-.147a2,2,0,0,0-.505-.372.728.728,0,0,1-.13-.076c0-.022.465-.443.82-.747C398.2,172.185,398.738,171.753,398.746,171.761Zm2.159.888.133.087a10.322,10.322,0,0,1,.937.693c.155.128.454.4.513.462l.033.035-.22.062c-1.244.345-2.206.652-3.327,1.065-.125.046-.231.084-.239.084s-.03.014.25-.244a11.927,11.927,0,0,0,1.825-2.1Zm-.568.141c.005.005-.367.53-.589.826-.266.353-.739.945-1.065,1.331-.136.16-.253.293-.258.3s-.011-.038-.011-.1a2.277,2.277,0,0,0-.231-.978c-.062-.125-.073-.155-.06-.168.052-.046.842-.5,1.342-.766C399.8,173.051,400.329,172.785,400.338,172.79Zm-3.433.842a1.2,1.2,0,0,1,.141.071,2.983,2.983,0,0,1,.467.315.81.81,0,0,1-.158.13c-.258.185-.649.481-.877.663s-.247.2-.22.155a4.659,4.659,0,0,0,.592-1.2A.462.462,0,0,1,396.9,173.632Zm.915.717c.014,0,.03.022.1.13a1.958,1.958,0,0,1,.3.79l.005.054-.372.144c-.666.258-1.279.513-1.7.7-.117.054-.32.152-.454.217s-.242.119-.242.117.084-.065.187-.141a10.953,10.953,0,0,0,2.043-1.882c.057-.068.109-.13.114-.133Zm-.421.1a5.742,5.742,0,0,1-.511.576,9.009,9.009,0,0,1-1.687,1.361l-.163.1c-.019.011.005-.016.288-.323.179-.193.315-.356.47-.557a.918.918,0,0,1,.272-.258C396.467,175.066,397.388,174.442,397.4,174.453Z" transform="translate(-3039.532 19401.113)"/>
    </g>
  </g>
</svg>
